<svg width="22" height="21" viewBox="0 0 22 21" fill="none" xmlns="http://www.w3.org/2000/svg">
<path fill-rule="evenodd" clip-rule="evenodd" d="M7.42335 0H15.197C18.7742 0 21.675 2.9107 21.675 6.5V14.3C21.675 17.8893 18.7742 20.8 15.197 20.8H7.42335C3.84618 20.8 0.945312 17.8893 0.945312 14.3V6.5C0.945312 2.9107 3.84618 0 7.42335 0ZM15.197 18.85C17.6975 18.85 19.7316 16.809 19.7316 14.3V6.5C19.7316 3.991 17.6975 1.95 15.197 1.95H7.42335C4.92283 1.95 2.88872 3.991 2.88872 6.5V14.3C2.88872 16.809 4.92283 18.85 7.42335 18.85H15.197ZM6.02198 10.4C6.02198 7.46969 8.38977 5.09388 11.3102 5.09388C14.2306 5.09388 16.5984 7.46969 16.5984 10.4C16.5984 13.3303 14.2306 15.7061 11.3102 15.7061C8.38977 15.7061 6.02198 13.3303 6.02198 10.4ZM8.00505 10.4C8.00505 12.228 9.48839 13.7163 11.3102 13.7163C13.132 13.7163 14.6153 12.228 14.6153 10.4C14.6153 8.57071 13.132 7.08367 11.3102 7.08367C9.48839 7.08367 8.00505 8.57071 8.00505 10.4ZM16.8099 5.51837C17.1604 5.51837 17.4445 5.23329 17.4445 4.88163C17.4445 4.52997 17.1604 4.2449 16.8099 4.2449C16.4594 4.2449 16.1753 4.52997 16.1753 4.88163C16.1753 5.23329 16.4594 5.51837 16.8099 5.51837Z" fill="white"/>
</svg>
